# xmcd
#
# Track frame offsets:
#	150
#	12900
#	42146
#	61641
#	81511
#	102507
#	125374
#	155371
#
# Disc length: 2585 seconds
#
# Revision: 1
# Processed by: cddbd v1.5.2PL0 Copyright (c) Steve Scherf et al.
# Submitted via: audiograbber 1.82.01
#
DISCID=5b0a1708
DTITLE=Eric Clapton - Live In Japan - Disc 1
DYEAR=0000
DGENRE=Rock
TTITLE0=Key To The Highway
TTITLE1=Reptile
TTITLE2=Got You On My Mind
TTITLE3=Tears In Heaven
TTITLE4=Layla
TTITLE5=Bell Bottom Blues
TTITLE6=Change The World
TTITLE7=River Of Tears
EXTD=
EXTT0=
EXTT1=
EXTT2=
EXTT3=
EXTT4=
EXTT5=
EXTT6=
EXTT7=
PLAYORDER=
